<?xml version="1.0" standalone="no"?>
<!DOCTYPE svg PUBLIC "-//W3C//DTD SVG 20010904//EN"
 "http://www.w3.org/TR/2001/REC-SVG-20010904/DTD/svg10.dtd">
<svg version="1.0" xmlns="http://www.w3.org/2000/svg"
 width="828.000000pt" height="828.000000pt" viewBox="0 0 828.000000 828.000000"
 preserveAspectRatio="xMidYMid meet">
<metadata>
Created by potrace 1.14, written by Peter Selinger 2001-2017
</metadata>
<g transform="translate(0.000000,828.000000) scale(0.100000,-0.100000)"
fill="#000000" stroke="none">
<path d="M3830 8273 c-241 -18 -568 -76 -810 -144 -983 -276 -1827 -905 -2378
-1769 -361 -568 -576 -1211 -633 -1898 -15 -180 -6 -652 15 -810 92 -687 305
-1263 671 -1812 700 -1051 1850 -1727 3109 -1830 287 -23 703 -8 974 36 605
97 1155 311 1662 649 1055 702 1728 1851 1831 3122 17 209 6 653 -20 848 -83
613 -287 1179 -607 1686 -695 1099 -1861 1807 -3159 1919 -109 9 -546 11 -655
3z m762 -1048 c286 -23 647 -92 900 -171 112 -35 213 -67 215 -69 2 -1 -38
-109 -88 -241 -50 -131 -99 -260 -108 -286 -9 -26 -19 -48 -24 -48 -4 0 -74
20 -155 44 -611 182 -1149 205 -1512 64 -140 -54 -261 -131 -369 -233 -177
-168 -257 -334 -268 -557 -13 -273 67 -487 254 -674 101 -101 198 -168 419
-291 162 -90 571 -317 794 -441 25 -13 126 -69 225 -124 575 -319 870 -606
1030 -1003 50 -125 73 -218 92 -375 14 -116 15 -154 4 -274 -28 -309 -85 -499
-217 -711 -53 -85 -53 -85 -137 -185 -158 -189 -436 -371 -707 -463 -218 -75
-399 -108 -726 -134 -209 -16 -236 -16 -476 0 -441 29 -742 82 -1078 189 -155
50 -380 141 -380 155 0 13 171 497 195 550 l14 31 118 -47 c287 -117 593 -198
897 -238 149 -20 599 -22 726 -4 348 49 561 139 743 310 170 160 255 343 264
566 16 362 -159 652 -522 867 -56 33 -421 237 -580 323 -277 151 -778 433
-847 476 -355 223 -615 498 -751 798 -175 386 -164 882 28 1288 152 323 467
604 842 753 214 84 430 132 698 155 208 17 273 17 487 0z"/>
</g>
</svg>
